HIERARCHY
ROOT SpineBase
{
  OFFSET 0.000000 0.000000 0.000000
  CHANNELS 6 Xposition Yposition Zposition Zrotation Xrotation Yrotation
  JOINT SpineMid
  {
    OFFSET 0.000000 27.053430 0.000000
    CHANNELS 3 Zrotation Xrotation Yrotation
    JOINT SpineShoulder
    {
      OFFSET -0.049641 20.196185 -0.690458
      CHANNELS 3 Zrotation Xrotation Yrotation
      JOINT Neck
      {
        OFFSET -0.029310 6.717433 -0.491800
        CHANNELS 3 Zrotation Xrotation Yrotation
        JOINT Head
        {
          OFFSET -2.564427 11.688812 1.346938
          CHANNELS 3 Zrotation Xrotation Yrotation
          End Site
          {
            OFFSET 0 0 0
          }
        }
      }
      JOINT ShoulderLeft
      {
        OFFSET -12.700732 -3.648112 4.409097
        CHANNELS 3 Zrotation Xrotation Yrotation
        JOINT ElbowLeft
        {
          OFFSET 0.112907 -26.494236 0.564856
          CHANNELS 3 Zrotation Xrotation Yrotation
          JOINT WristLeft
          {
            OFFSET -1.673701 -21.178385 -4.886796
            CHANNELS 3 Zrotation Xrotation Yrotation
            JOINT HandLeft
            {
              OFFSET 0.292465 -3.799624 -1.507340
              CHANNELS 3 Zrotation Xrotation Yrotation
              JOINT HandTipLeft
              {
                OFFSET -0.135934 -6.908489 -1.424977
                CHANNELS 3 Zrotation Xrotation Yrotation
                End Site
                {
                  OFFSET 0 0 0
                }
              }
              JOINT ThumbLeft
              {
                OFFSET 3.252705 0.426794 -2.078480
                CHANNELS 3 Zrotation Xrotation Yrotation
                End Site
                {
                  OFFSET 0 0 0
                }
              }
            }
          }
        }
      }
      JOINT ShoulderRight
      {
        OFFSET 11.241286 -2.549494 -7.433681
        CHANNELS 3 Zrotation Xrotation Yrotation
        JOINT ElbowRight
        {
          OFFSET 3.230600 -22.950974 -3.963090
          CHANNELS 3 Zrotation Xrotation Yrotation
          JOINT WristRight
          {
            OFFSET 0.310457 -19.885154 -5.936349
            CHANNELS 3 Zrotation Xrotation Yrotation
            JOINT HandRight
            {
              OFFSET -0.699635 -7.216442 -0.929032
              CHANNELS 3 Zrotation Xrotation Yrotation
              JOINT HandTipRight
              {
                OFFSET -0.180166 -6.475638 -0.582675
                CHANNELS 3 Zrotation Xrotation Yrotation
                End Site
                {
                  OFFSET 0 0 0
                }
              }
              JOINT ThumbRight
              {
                OFFSET 1.851285 -1.056583 -2.957252
                CHANNELS 3 Zrotation Xrotation Yrotation
                End Site
                {
                  OFFSET 0 0 0
                }
              }
            }
          }
        }
      }
    }
  }
  JOINT HipLeft
  {
    OFFSET -5.716858 0.271491 -0.763092
    CHANNELS 3 Zrotation Xrotation Yrotation
    JOINT KneeLeft
    {
      OFFSET 5.809297 -30.388557 2.222039
      CHANNELS 3 Zrotation Xrotation Yrotation
      JOINT AnkleLeft
      {
        OFFSET 5.953561 -33.168597 5.268946
        CHANNELS 3 Zrotation Xrotation Yrotation
        JOINT FootLeft
        {
          OFFSET -3.575993 -2.450851 -9.995051
          CHANNELS 3 Zrotation Xrotation Yrotation
          End Site
          {
            OFFSET 0 0 0
          }
        }
      }
    }
  }
  JOINT HipRight
  {
    OFFSET 5.061425 1.328117 -5.307842
    CHANNELS 3 Zrotation Xrotation Yrotation
    JOINT KneeRight
    {
      OFFSET 7.801870 -27.762496 -2.958178
      CHANNELS 3 Zrotation Xrotation Yrotation
      JOINT AnkleRight
      {
        OFFSET 5.721705 -34.065737 5.411787
        CHANNELS 3 Zrotation Xrotation Yrotation
        JOINT FootRight
        {
          OFFSET -3.496578 -5.837697 -2.566333
          CHANNELS 3 Zrotation Xrotation Yrotation
          End Site
          {
            OFFSET 0 0 0
          }
        }
      }
    }
  }
}
MOTION
Frames: 9
Frame Time: 0.033333
39.567764 69.397222 367.273412 -0.000000 0.000000 22.863113 -0.000000 0.000000 -22.863113 -0.000000 0.000000 0.000000 -0.000000 0.000000 0.000000 0.000000 0.000000 0.000000 -0.000000 0.000000 0.000000 -0.000000 0.000000 0.000000 -0.000000 0.000000 0.000000 -0.000000 0.000000 0.000000 0.000000 0.000000 0.000000 0.000000 0.000000 0.000000 -0.000000 0.000000 0.000000 -0.000000 0.000000 0.000000 -0.000000 0.000000 0.000000 -0.000000 0.000000 0.000000 0.000000 0.000000 0.000000 0.000000 0.000000 0.000000 -0.000000 0.000000 -22.863113 -0.000000 0.000000 0.000000 -0.000000 0.000000 0.000000 0.000000 0.000000 0.000000 -0.000000 0.000000 -22.863113 -0.000000 0.000000 0.000000 -0.000000 0.000000 0.000000 0.000000 0.000000 0.000000
39.706873 69.399139 367.107785 0.160094 0.217964 21.983590 -0.230048 -0.142185 -21.984180 -0.000000 0.000000 0.000000 -0.000000 0.000000 0.000000 0.000000 0.000000 0.000000 -1.839967 -2.717960 -0.094429 3.940059 10.717174 -1.335976 5.886740 -3.038715 -0.992515 -3.829284 -0.378725 1.628858 0.000000 0.000000 0.000000 0.000000 0.000000 0.000000 3.584129 -1.649412 -0.798131 -7.688645 3.724491 2.323767 -1.452310 -1.510866 -0.698649 0.622554 -0.971274 -0.230841 0.000000 0.000000 0.000000 0.000000 0.000000 0.000000 -0.230048 -0.142185 -21.984180 -0.000000 0.000000 0.000000 -0.000000 0.000000 0.000000 0.000000 0.000000 0.000000 -0.230048 -0.142185 -21.984180 -0.000000 0.000000 0.000000 -0.867453 -1.151216 1.062043 0.000000 0.000000 0.000000
39.856184 69.418079 366.970105 0.333243 0.376566 21.237660 -0.447020 -0.230271 -21.239653 -0.000000 0.000000 0.000000 -0.000000 0.000000 0.000000 0.000000 0.000000 0.000000 -3.859322 -5.283670 -0.282748 8.715937 21.005527 -3.444152 12.402619 -8.034975 -0.746185 -8.272352 1.768109 3.239593 0.000000 0.000000 0.000000 0.000000 0.000000 0.000000 7.159466 -2.999174 -1.466111 -15.481773 6.269894 4.936545 -2.382305 -3.275929 -1.552389 0.491000 -0.844160 -0.457084 0.000000 0.000000 0.000000 0.000000 0.000000 0.000000 -1.244318 -0.776957 -21.439224 0.542370 0.800218 0.188775 -0.000000 0.000000 0.000000 0.000000 0.000000 0.000000 -0.447020 -0.230271 -21.239653 -0.000000 0.000000 0.000000 -1.427387 -2.519207 2.109719 0.000000 0.000000 0.000000
40.015698 69.454043 366.860374 0.519600 0.475808 20.633378 -0.653944 -0.262167 -20.637032 -0.000000 0.000000 0.000000 -0.000000 0.000000 0.000000 0.000000 0.000000 0.000000 -6.041367 -7.600579 -0.562355 14.625029 30.564244 -6.585749 19.189729 -14.769479 1.403751 -12.948524 6.502645 4.616343 0.000000 0.000000 0.000000 0.000000 0.000000 0.000000 10.712651 -4.007257 -2.028922 -23.451474 7.680936 7.691677 -2.406733 -5.673613 -2.615081 -0.262585 0.689187 -0.515636 0.000000 0.000000 0.000000 0.000000 0.000000 0.000000 -1.827036 -0.965108 -20.916755 0.844997 1.075249 0.259229 -0.216890 -0.138978 1.089385 0.000000 0.000000 0.000000 -0.653944 -0.262167 -20.637032 -0.000000 0.000000 0.000000 -1.699432 -4.106040 3.167630 0.000000 0.000000 0.000000
40.185413 69.507029 366.778591 0.719340 0.515608 20.177279 -0.853046 -0.235808 -20.182272 -0.000000 0.000000 0.000000 -0.000000 0.000000 0.000000 0.000000 0.000000 0.000000 -8.356680 -9.570355 -0.918783 22.040468 39.087450 -11.102329 26.201446 -22.614523 5.903633 -17.485258 13.444248 5.659970 0.000000 0.000000 0.000000 0.000000 0.000000 0.000000 14.231960 -4.637718 -2.517075 -31.646484 7.979937 10.432503 -1.168025 -9.122405 -3.956464 -1.506489 3.940300 -0.187630 0.000000 0.000000 0.000000 0.000000 0.000000 0.000000 -2.392306 -1.011660 -20.526234 1.169812 1.265984 0.314280 -0.257872 -0.193105 1.337718 0.000000 0.000000 0.000000 -0.853046 -0.235808 -20.182272 -0.758120 -0.271976 -0.168043 -0.915839 -5.650071 4.435176 0.000000 0.000000 0.000000
40.365331 69.577038 366.724756 0.932657 0.495790 19.874334 -0.224485 0.071298 -19.854134 -0.697508 -0.486217 -0.027997 -0.000000 0.000000 0.000000 0.000000 0.000000 0.000000 -10.762485 -11.100594 -1.324248 31.361658 46.253214 -17.364125 33.679280 -30.746866 13.008940 -21.587524 21.911241 6.363943 0.000000 0.000000 0.000000 0.000000 0.000000 0.000000 17.707220 -4.860040 -2.965260 -40.117568 7.179149 12.985541 1.715447 -14.136241 -5.637809 -3.324603 9.248249 0.778788 0.000000 0.000000 0.000000 0.000000 0.000000 0.000000 -2.944261 -0.910464 -20.269873 1.517735 1.371449 0.354419 -0.283228 -0.250814 1.528443 0.000000 0.000000 0.000000 -1.045655 -0.149143 -19.879730 -0.764006 -0.242007 -0.163764 -0.611632 -7.730113 5.589378 0.000000 0.000000 0.000000
40.570614 69.666106 366.663123 1.189976 0.447449 19.700470 -0.299666 0.103420 -19.675106 -0.873218 -0.443319 -0.034318 1.130526 0.044463 -0.120695 0.000000 0.000000 0.000000 -14.078567 -12.219550 -1.865129 47.500947 53.377135 -29.046040 45.750616 -39.516259 26.671465 -25.568761 34.022825 6.175493 0.000000 0.000000 0.000000 0.000000 0.000000 0.000000 22.352949 -4.818530 -3.561259 -51.721594 5.318764 16.015980 12.779281 -26.496472 -7.663898 -7.623737 22.137222 3.360267 0.000000 0.000000 0.000000 0.000000 0.000000 0.000000 -3.573030 -0.686902 -20.130988 1.932317 1.417744 0.387536 -0.314188 -0.323790 1.766019 0.000000 0.000000 0.000000 -1.915596 0.486925 -19.546525 0.776932 -0.262112 -0.154411 0.317091 -13.393828 8.389758 0.000000 0.000000 0.000000
40.770376 69.777406 366.675778 1.426811 0.296132 19.702143 -0.352390 0.138410 -19.669925 -0.142624 -0.290606 0.031714 0.757567 0.497412 -0.151798 0.000000 0.000000 0.000000 -17.875205 -12.551650 -2.362420 64.052380 56.723971 -41.470132 58.004020 -46.617024 43.358657 -26.943730 43.843955 5.695159 0.000000 0.000000 0.000000 0.000000 0.000000 0.000000 25.320180 -4.270896 -4.162482 -62.528801 1.926461 17.853622 22.993381 -40.051600 -9.141417 -19.358220 33.714115 10.713462 0.000000 0.000000 0.000000 0.000000 0.000000 0.000000 -4.082172 -0.234525 -20.124992 2.328099 1.317692 0.394190 -0.310741 -0.398456 1.866487 0.000000 0.000000 0.000000 -2.355983 0.920768 -19.472802 1.100182 -0.372980 -0.217953 3.073910 -20.514937 12.801177 0.000000 0.000000 0.000000
40.964008 69.898679 366.752545 1.663297 0.062560 19.926296 -0.396243 0.213196 -19.885698 -0.168114 -0.282399 0.036646 1.051490 1.212684 -0.109282 0.000000 0.000000 0.000000 -19.901070 -11.971827 -2.497016 76.658372 57.154186 -50.778461 69.924567 -50.604025 59.896267 -31.732360 51.775560 8.142610 0.000000 0.000000 0.000000 0.000000 0.000000 0.000000 27.898547 -2.883740 -4.750416 -71.367308 -2.234408 17.995443 26.806718 -50.301847 -12.345005 -29.317959 42.415181 19.992435 0.000000 0.000000 0.000000 0.000000 0.000000 0.000000 -4.493187 0.419669 -20.301167 2.696835 1.091934 0.378834 -0.264648 -0.450409 1.757552 0.000000 0.000000 0.000000 -2.888684 1.354652 -19.637825 1.512244 -0.358990 -0.256424 1.271511 -16.803355 10.489718 0.000000 0.000000 0.000000
